# Blender v3.0.1 OBJ File: ''
# www.blender.org
o Cube
v 0.714664 1.000000 -1.000000
v 0.714664 -1.000000 -1.000000
v 0.714664 1.000000 1.000000
v 0.714664 -1.000000 1.000000
v -0.716198 1.000000 -1.000000
v -0.716198 -1.000000 -1.000000
v -0.716198 1.000000 1.000000
v -0.716198 -1.000000 1.000000
v 0.116804 -2.971416 -0.857193
v 0.116804 3.552110 2.973286
v 0.116804 -2.971416 0.857193
v 0.116804 3.552110 -2.973286
v -1.000000 -1.000000 0.000000
v 1.000000 1.000000 0.000000
v -1.000000 1.000000 0.000000
v 1.000000 -1.000000 0.000000
v 0.116804 -3.762756 0.000000
v 0.068133 1.852114 0.152136
v 0.906950 0.060487 -1.276853
v -0.920051 0.060487 1.276853
v 0.906950 0.060487 1.276853
v -0.920051 0.060487 -1.276853
v 0.141057 0.324312 -3.088229
v 0.141057 0.324312 3.088229
v 1.268769 0.060487 0.000000
v -1.284938 0.060487 0.000000
v 0.415734 -1.985708 0.928596
v 0.415734 2.381378 -2.381378
v 0.415734 -1.985708 -0.928596
v 0.415734 2.381378 2.381378
v 0.534066 1.426057 0.076068
v 0.558402 -2.381378 0.000000
v 0.524004 0.192399 2.182541
v 0.524004 0.192399 -2.182541
v -0.796618 0.629363 1.109218
v 0.790521 0.629363 -1.109218
v 0.790521 0.629363 1.109218
v -0.796618 0.629363 -1.109218
v 0.126372 2.406293 -3.496655
v 0.126372 2.406293 3.496655
v 1.106029 0.629363 0.000000
v -1.112408 0.629363 0.000000
v 0.458446 1.517828 2.302937
v 0.458446 1.517828 -2.302937
vt 0.735399 0.625000
vt 0.875000 0.750000
vt 0.735399 0.750000
vt 0.579376 0.860399
vt 0.625000 1.000000
vt 0.579376 1.000000
vt 0.579376 0.125000
vt 0.625000 0.250000
vt 0.579376 0.250000
vt 0.375000 0.625000
vt 0.319800 0.750000
vt 0.319800 0.625000
vt 0.579376 0.625000
vt 0.625000 0.750000
vt 0.579376 0.750000
vt 0.579376 0.444800
vt 0.625000 0.500000
vt 0.579376 0.500000
vt 0.579376 0.389601
vt 0.125000 0.625000
vt 0.264601 0.750000
vt 0.125000 0.750000
vt 0.625000 0.805200
vt 0.579376 0.805200
vt 0.680200 0.750000
vt 0.680200 0.625000
vt 0.680200 0.500000
vt 0.264601 0.500000
vt 0.125000 0.500000
vt 0.319800 0.500000
vt 0.625000 0.000000
vt 0.579376 0.000000
vt 0.875000 0.500000
vt 0.735399 0.500000
vt 0.375000 0.000000
vt 0.509349 0.125000
vt 0.375000 0.125000
vt 0.375000 0.500000
vt 0.509349 0.625000
vt 0.375000 0.805200
vt 0.509349 0.860400
vt 0.375000 0.860399
vt 0.375000 0.250000
vt 0.509349 0.389601
vt 0.375000 0.389601
vt 0.509349 0.444800
vt 0.375000 0.444800
vt 0.375000 0.750000
vt 0.375000 1.000000
vt 0.509349 0.805200
vt 0.264601 0.625000
vt 0.625000 0.625000
vt 0.625000 0.444800
vt 0.509349 0.750000
vt 0.509349 0.000000
vt 0.509349 0.500000
vt 0.509349 0.250000
vt 0.509349 1.000000
vt 0.875000 0.625000
vt 0.625000 0.860399
vt 0.625000 0.125000
vt 0.625000 0.389601
vn -0.8286 0.4857 -0.2784
vn -0.9501 0.2578 0.1754
vn -0.9239 0.2780 -0.2630
vn 0.9182 -0.2935 0.2661
vn 0.9268 0.2674 0.2636
vn 0.9686 0.2277 -0.1000
vn -0.9501 0.2578 -0.1754
vn -0.8850 -0.3921 0.2512
vn 0.9678 0.0251 0.2505
vn 0.6250 0.7320 -0.2712
vn 0.6763 0.6970 0.2384
vn -0.8850 -0.3921 -0.2512
vn 0.9268 0.2674 -0.2636
vn 0.9182 -0.2935 -0.2661
vn -0.9239 0.2780 0.2630
vn -0.8536 0.4631 0.2386
vn -0.9314 -0.2503 0.2643
vn 0.9343 -0.2368 -0.2666
vn 0.8593 -0.2911 0.4206
vn -0.7602 -0.3604 -0.5406
vn 0.8546 -0.2904 -0.4306
vn 0.9343 -0.2368 0.2666
vn -0.9314 -0.2503 -0.2643
vn -0.7602 -0.3604 0.5406
vn 0.8593 -0.2911 -0.4206
vn 0.8546 -0.2904 0.4306
vn 0.9170 -0.2931 -0.2706
vn 0.6467 0.7401 -0.1845
vn 0.6791 0.7080 0.1938
vn 0.9686 0.2277 0.1000
vn 0.9678 0.0251 -0.2505
vn 0.9170 -0.2931 0.2706
vn 0.9215 0.0103 -0.3881
vn 0.8974 0.2833 0.3382
vn -0.9236 0.2782 0.2639
vn 0.9271 0.2672 -0.2627
vn 0.9215 0.0103 0.3881
vn -0.8386 0.3133 -0.4456
vn 0.8974 0.2833 -0.3382
vn 0.9271 0.2672 0.2627
vn -0.9236 0.2782 -0.2639
vn -0.8386 0.3133 0.4456
vn -0.6290 0.7566 0.1785
vn -0.9589 0.1112 0.2610
vn -0.9235 0.2801 -0.2621
vn 0.9181 -0.2974 0.2620
vn 0.9272 0.2652 0.2646
vn 0.9830 0.0322 -0.1805
vn -0.9589 0.1112 -0.2610
vn -0.8762 -0.3542 0.3270
vn 0.9615 0.1207 0.2468
vn 0.9111 0.3460 -0.2242
vn 0.9217 0.3346 0.1964
vn -0.8762 -0.3542 -0.3270
vn 0.9272 0.2652 -0.2646
vn 0.9181 -0.2974 -0.2620
vn -0.9235 0.2801 0.2621
vn -0.5996 0.7820 -0.1702
vn -0.9313 -0.2485 0.2662
vn 0.9343 -0.2385 -0.2648
vn 0.8695 -0.2782 0.4082
vn -0.8069 -0.2895 -0.5149
vn 0.8737 -0.2649 -0.4080
vn 0.9343 -0.2385 0.2648
vn -0.9313 -0.2485 -0.2662
vn -0.8069 -0.2895 0.5149
vn 0.8695 -0.2782 -0.4082
vn 0.8737 -0.2649 0.4080
vn 0.9165 -0.2973 -0.2675
vn 0.9626 0.2650 0.0566
vn 0.9606 0.2708 -0.0629
vn 0.9830 0.0322 0.1805
vn 0.9615 0.1207 -0.2468
vn 0.9165 -0.2973 0.2675
vn 0.9512 -0.0529 -0.3040
vn -0.9233 0.2800 0.2629
vn 0.9274 0.2653 -0.2638
vn 0.9512 -0.0529 0.3040
vn -0.9054 -0.0879 -0.4154
vn 0.9274 0.2653 0.2638
vn -0.9233 0.2800 -0.2629
vn -0.9054 -0.0879 0.4154
s off
f 18/1/1 7/2/1 10/3/1
f 40/4/2 7/5/2 35/6/2
f 42/7/3 5/8/3 38/9/3
f 16/10/4 27/11/4 32/12/4
f 41/13/5 3/14/5 37/15/5
f 44/16/6 1/17/6 36/18/6
f 5/8/7 39/19/7 38/9/7
f 13/20/8 11/21/8 8/22/8
f 30/23/9 40/4/9 43/24/9
f 18/1/10 30/25/10 31/26/10
f 28/27/11 18/1/11 31/26/11
f 9/28/12 13/20/12 6/29/12
f 1/17/13 41/13/13 36/18/13
f 29/30/14 16/10/14 32/12/14
f 7/31/15 42/7/15 35/32/15
f 5/33/16 18/1/16 12/34/16
f 8/35/17 26/36/17 13/37/17
f 2/38/18 25/39/18 16/10/18
f 27/40/19 24/41/19 11/42/19
f 6/43/20 23/44/20 9/45/20
f 34/46/21 2/38/21 29/47/21
f 25/39/22 4/48/22 16/10/22
f 26/36/23 6/43/23 13/37/23
f 24/41/24 8/49/24 11/42/24
f 23/44/25 29/47/25 9/45/25
f 4/48/26 33/50/26 27/40/26
f 9/28/27 32/12/27 17/51/27
f 1/17/28 31/26/28 14/52/28
f 31/26/29 3/14/29 14/52/29
f 3/14/30 43/24/30 37/15/30
f 39/19/31 28/53/31 44/16/31
f 32/12/32 11/21/32 17/51/32
f 23/44/33 44/16/33 34/46/33
f 37/15/34 33/50/34 21/54/34
f 35/32/35 26/36/35 20/55/35
f 36/18/36 25/39/36 19/56/36
f 43/24/37 24/41/37 33/50/37
f 38/9/38 23/44/38 22/57/38
f 34/46/39 36/18/39 19/56/39
f 25/39/40 37/15/40 21/54/40
f 26/36/41 38/9/41 22/57/41
f 24/41/42 35/6/42 20/58/42
f 18/1/43 15/59/43 7/2/43
f 40/4/44 10/60/44 7/5/44
f 42/7/45 15/61/45 5/8/45
f 16/10/46 4/48/46 27/11/46
f 41/13/47 14/52/47 3/14/47
f 44/16/48 28/53/48 1/17/48
f 5/8/49 12/62/49 39/19/49
f 13/20/50 17/51/50 11/21/50
f 30/23/51 10/60/51 40/4/51
f 18/1/52 10/3/52 30/25/52
f 28/27/53 12/34/53 18/1/53
f 9/28/54 17/51/54 13/20/54
f 1/17/55 14/52/55 41/13/55
f 29/30/56 2/38/56 16/10/56
f 7/31/57 15/61/57 42/7/57
f 5/33/58 15/59/58 18/1/58
f 8/35/59 20/55/59 26/36/59
f 2/38/60 19/56/60 25/39/60
f 27/40/61 33/50/61 24/41/61
f 6/43/62 22/57/62 23/44/62
f 34/46/63 19/56/63 2/38/63
f 25/39/64 21/54/64 4/48/64
f 26/36/65 22/57/65 6/43/65
f 24/41/66 20/58/66 8/49/66
f 23/44/67 34/46/67 29/47/67
f 4/48/68 21/54/68 33/50/68
f 9/28/69 29/30/69 32/12/69
f 1/17/70 28/27/70 31/26/70
f 31/26/71 30/25/71 3/14/71
f 3/14/72 30/23/72 43/24/72
f 39/19/73 12/62/73 28/53/73
f 32/12/74 27/11/74 11/21/74
f 23/44/75 39/19/75 44/16/75
f 37/15/9 43/24/9 33/50/9
f 35/32/76 42/7/76 26/36/76
f 36/18/77 41/13/77 25/39/77
f 43/24/78 40/4/78 24/41/78
f 38/9/79 39/19/79 23/44/79
f 34/46/31 44/16/31 36/18/31
f 25/39/80 41/13/80 37/15/80
f 26/36/81 42/7/81 38/9/81
f 24/41/82 40/4/82 35/6/82
